<svg xmlns="http://www.w3.org/2000/svg" viewBox="0 0 24 24" fill="#553B08">
  <path d="M11.43 23.995c-3.608-.208-6.274-2.077-6.448-5.078.695.007 1.375-.013 2.07.006.435-2.55 1.935-4.31 4.435-4.887 2.175-.503 4.268-.27 6.094 1.144.864.67 1.438 1.564 1.753 2.603.707 2.34-.012 4.287-2.186 5.54-1.223.705-2.578.882-3.976.896-1.27.013-2.54.003-3.81.003l2.068-.227zm.562-12.986c2.412-.004 4.014-1.728 3.935-4.08-.073-2.185-1.854-3.834-4.07-3.777-2.185.056-3.897 1.873-3.83 4.037.07 2.274 1.818 3.825 3.965 3.82z"/>
</svg> 