<svg xmlns="http://www.w3.org/2000/svg" viewBox="0 0 24 24" fill="#FBB831">
  <path d="M12 0C5.373 0 0 5.373 0 12s5.373 12 12 12 12-5.373 12-12S18.627 0 12 0zm0 3.6c1.97 0 3.77.71 5.17 1.89L12 10.658 6.83 5.49C8.23 4.31 10.03 3.6 12 3.6zm-6.589 2.908L10.658 12l-5.247 5.247C4.31 15.77 3.6 13.97 3.6 12c0-1.97.71-3.77 1.811-5.492zm13.178 0C19.69 8.23 20.4 10.03 20.4 12c0 1.97-.71 3.77-1.89 5.17L13.342 12l5.247-5.492zM12 13.342l5.17 5.168c-1.4 1.18-3.2 1.89-5.17 1.89s-3.77-.71-5.17-1.89L12 13.342z"/>
</svg> 